<svg width="25" height="24" viewBox="0 0 25 24" fill="none" xmlns="http://www.w3.org/2000/svg">
<g id="radiation_icon" clip-path="url(#clip0_11536_18323)">
<path id="Vector" d="M12.5001 9.79139C13.7423 9.79139 14.7501 10.7992 14.7501 12.0414C14.7501 13.2836 13.7423 14.2914 12.5001 14.2914C11.2579 14.2914 10.2501 13.2414 10.2501 12.0414C10.2501 10.8414 11.2579 9.79139 12.5001 9.79139ZM10.5126 15.1867L7.1892 20.4972C6.71107 21.2612 5.6517 21.4534 4.96498 20.8703C2.85842 19.0844 1.39357 16.5662 0.972636 13.7078C0.840729 12.8101 1.56279 12.0086 2.46935 12.0086H8.74123C8.74076 13.3492 9.45326 14.5164 10.5126 15.1867ZM20.0376 20.8703C19.35 21.4534 18.2934 21.2611 17.8153 20.4969L14.4876 15.1867C15.547 14.5164 16.2595 13.3492 16.2595 12.0086H22.5314C23.438 12.0086 24.1598 12.8115 24.0281 13.7083C23.6048 16.5648 22.1423 19.0867 20.0376 20.8703ZM14.4876 8.83514C13.9111 8.4742 13.2314 8.25389 12.5001 8.25389C11.7689 8.25389 11.0892 8.47425 10.5126 8.83514L7.1892 3.51951C6.71389 2.75967 6.9942 1.72889 7.81357 1.36561C9.24701 0.73045 10.8314 0.374201 12.5001 0.374201C14.1689 0.374201 15.7542 0.730965 17.1876 1.36701C18.007 1.73039 18.2873 2.76108 17.812 3.52092L14.4876 8.83514Z" fill="#060605"/>
</g>
<defs>
<clipPath id="clip0_11536_18323">
<rect width="24" height="24" fill="white" transform="matrix(1 0 0 -1 0.5 24)"/>
</clipPath>
</defs>
</svg>
